<mxfile host="app.diagrams.net" modified="2020-11-23T16:18:24.041Z" agent="5.0 (Windows NT 10.0; Win64; x64) AppleWebKit/537.36 (KHTML, like Gecko) Chrome/87.0.4280.66 Safari/537.36" etag="FOhBBAnPHrC0zJTfj6c2" version="13.10.1" type="github">
  <diagram id="2Jz04P_5aXP32Vxie3Gh" name="Page-1">
    <mxGraphModel dx="1296" dy="1888" grid="1" gridSize="10" guides="1" tooltips="1" connect="1" arrows="1" fold="1" page="1" pageScale="1" pageWidth="850" pageHeight="1100" math="0" shadow="0">
      <root>
        <mxCell id="0" />
        <mxCell id="1" parent="0" />
        <mxCell id="sxXa7FljWsAYec9nlj64-11" value="sebastien.regions" style="shape=table;startSize=30;container=1;collapsible=1;childLayout=tableLayout;fixedRows=1;rowLines=0;fontStyle=1;align=center;resizeLast=1;" vertex="1" parent="1">
          <mxGeometry x="-260" y="-610" width="180" height="100" as="geometry" />
        </mxCell>
        <mxCell id="sxXa7FljWsAYec9nlj64-12" value="" style="shape=partialRectangle;collapsible=0;dropTarget=0;pointerEvents=0;fillColor=none;top=0;left=0;bottom=0;right=0;points=[[0,0.5],[1,0.5]];portConstraint=eastwest;" vertex="1" parent="sxXa7FljWsAYec9nlj64-11">
          <mxGeometry y="30" width="180" height="30" as="geometry" />
        </mxCell>
        <mxCell id="sxXa7FljWsAYec9nlj64-13" value="PK" style="shape=partialRectangle;connectable=0;fillColor=none;top=0;left=0;bottom=0;right=0;fontStyle=1;overflow=hidden;" vertex="1" parent="sxXa7FljWsAYec9nlj64-12">
          <mxGeometry width="30" height="30" as="geometry" />
        </mxCell>
        <mxCell id="sxXa7FljWsAYec9nlj64-14" value="region_id" style="shape=partialRectangle;connectable=0;fillColor=none;top=0;left=0;bottom=0;right=0;align=left;spacingLeft=6;fontStyle=5;overflow=hidden;" vertex="1" parent="sxXa7FljWsAYec9nlj64-12">
          <mxGeometry x="30" width="150" height="30" as="geometry" />
        </mxCell>
        <mxCell id="sxXa7FljWsAYec9nlj64-18" value="" style="shape=partialRectangle;collapsible=0;dropTarget=0;pointerEvents=0;fillColor=none;top=0;left=0;bottom=0;right=0;points=[[0,0.5],[1,0.5]];portConstraint=eastwest;" vertex="1" parent="sxXa7FljWsAYec9nlj64-11">
          <mxGeometry y="60" width="180" height="30" as="geometry" />
        </mxCell>
        <mxCell id="sxXa7FljWsAYec9nlj64-19" value="" style="shape=partialRectangle;connectable=0;fillColor=none;top=0;left=0;bottom=0;right=0;editable=1;overflow=hidden;" vertex="1" parent="sxXa7FljWsAYec9nlj64-18">
          <mxGeometry width="30" height="30" as="geometry" />
        </mxCell>
        <mxCell id="sxXa7FljWsAYec9nlj64-20" value="region_name" style="shape=partialRectangle;connectable=0;fillColor=none;top=0;left=0;bottom=0;right=0;align=left;spacingLeft=6;overflow=hidden;" vertex="1" parent="sxXa7FljWsAYec9nlj64-18">
          <mxGeometry x="30" width="150" height="30" as="geometry" />
        </mxCell>
        <mxCell id="sxXa7FljWsAYec9nlj64-24" value="sebastien.countries" style="shape=table;startSize=30;container=1;collapsible=1;childLayout=tableLayout;fixedRows=1;rowLines=0;fontStyle=1;align=center;resizeLast=1;" vertex="1" parent="1">
          <mxGeometry x="-260" y="-780" width="180" height="130" as="geometry" />
        </mxCell>
        <mxCell id="sxXa7FljWsAYec9nlj64-25" value="" style="shape=partialRectangle;collapsible=0;dropTarget=0;pointerEvents=0;fillColor=none;top=0;left=0;bottom=1;right=0;points=[[0,0.5],[1,0.5]];portConstraint=eastwest;strokeColor=none;" vertex="1" parent="sxXa7FljWsAYec9nlj64-24">
          <mxGeometry y="30" width="180" height="30" as="geometry" />
        </mxCell>
        <mxCell id="sxXa7FljWsAYec9nlj64-26" value="PK" style="shape=partialRectangle;connectable=0;fillColor=none;top=0;left=0;bottom=0;right=0;fontStyle=1;overflow=hidden;" vertex="1" parent="sxXa7FljWsAYec9nlj64-25">
          <mxGeometry width="30" height="30" as="geometry" />
        </mxCell>
        <mxCell id="sxXa7FljWsAYec9nlj64-27" value="country_id" style="shape=partialRectangle;connectable=0;fillColor=none;top=0;left=0;bottom=0;right=0;align=left;spacingLeft=6;fontStyle=5;overflow=hidden;strokeColor=none;" vertex="1" parent="sxXa7FljWsAYec9nlj64-25">
          <mxGeometry x="30" width="150" height="30" as="geometry" />
        </mxCell>
        <mxCell id="sxXa7FljWsAYec9nlj64-28" value="" style="shape=partialRectangle;collapsible=0;dropTarget=0;pointerEvents=0;fillColor=none;top=0;left=0;bottom=0;right=0;points=[[0,0.5],[1,0.5]];portConstraint=eastwest;" vertex="1" parent="sxXa7FljWsAYec9nlj64-24">
          <mxGeometry y="60" width="180" height="30" as="geometry" />
        </mxCell>
        <mxCell id="sxXa7FljWsAYec9nlj64-29" value="" style="shape=partialRectangle;connectable=0;fillColor=none;top=0;left=0;bottom=0;right=0;editable=1;overflow=hidden;" vertex="1" parent="sxXa7FljWsAYec9nlj64-28">
          <mxGeometry width="30" height="30" as="geometry" />
        </mxCell>
        <mxCell id="sxXa7FljWsAYec9nlj64-30" value="country_name" style="shape=partialRectangle;connectable=0;fillColor=none;top=0;left=0;bottom=0;right=0;align=left;spacingLeft=6;overflow=hidden;" vertex="1" parent="sxXa7FljWsAYec9nlj64-28">
          <mxGeometry x="30" width="150" height="30" as="geometry" />
        </mxCell>
        <mxCell id="sxXa7FljWsAYec9nlj64-31" value="" style="shape=partialRectangle;collapsible=0;dropTarget=0;pointerEvents=0;fillColor=none;top=0;left=0;bottom=0;right=0;points=[[0,0.5],[1,0.5]];portConstraint=eastwest;" vertex="1" parent="sxXa7FljWsAYec9nlj64-24">
          <mxGeometry y="90" width="180" height="30" as="geometry" />
        </mxCell>
        <mxCell id="sxXa7FljWsAYec9nlj64-32" value="FK" style="shape=partialRectangle;connectable=0;fillColor=none;top=0;left=0;bottom=0;right=0;editable=1;overflow=hidden;" vertex="1" parent="sxXa7FljWsAYec9nlj64-31">
          <mxGeometry width="30" height="30" as="geometry" />
        </mxCell>
        <mxCell id="sxXa7FljWsAYec9nlj64-33" value="region_id" style="shape=partialRectangle;connectable=0;fillColor=none;top=0;left=0;bottom=0;right=0;align=left;spacingLeft=6;overflow=hidden;" vertex="1" parent="sxXa7FljWsAYec9nlj64-31">
          <mxGeometry x="30" width="150" height="30" as="geometry" />
        </mxCell>
        <mxCell id="sxXa7FljWsAYec9nlj64-42" value="sebastien.locations" style="shape=table;startSize=30;container=1;collapsible=1;childLayout=tableLayout;fixedRows=1;rowLines=0;fontStyle=1;align=center;resizeLast=1;" vertex="1" parent="1">
          <mxGeometry x="-260" y="-1060" width="180" height="220" as="geometry" />
        </mxCell>
        <mxCell id="sxXa7FljWsAYec9nlj64-43" value="" style="shape=partialRectangle;collapsible=0;dropTarget=0;pointerEvents=0;fillColor=none;top=0;left=0;bottom=1;right=0;points=[[0,0.5],[1,0.5]];portConstraint=eastwest;strokeColor=none;" vertex="1" parent="sxXa7FljWsAYec9nlj64-42">
          <mxGeometry y="30" width="180" height="30" as="geometry" />
        </mxCell>
        <mxCell id="sxXa7FljWsAYec9nlj64-44" value="PK" style="shape=partialRectangle;connectable=0;fillColor=none;top=0;left=0;bottom=0;right=0;fontStyle=1;overflow=hidden;" vertex="1" parent="sxXa7FljWsAYec9nlj64-43">
          <mxGeometry width="30" height="30" as="geometry" />
        </mxCell>
        <mxCell id="sxXa7FljWsAYec9nlj64-45" value="location_id" style="shape=partialRectangle;connectable=0;fillColor=none;top=0;left=0;bottom=0;right=0;align=left;spacingLeft=6;fontStyle=5;overflow=hidden;" vertex="1" parent="sxXa7FljWsAYec9nlj64-43">
          <mxGeometry x="30" width="150" height="30" as="geometry" />
        </mxCell>
        <mxCell id="sxXa7FljWsAYec9nlj64-46" value="" style="shape=partialRectangle;collapsible=0;dropTarget=0;pointerEvents=0;fillColor=none;top=0;left=0;bottom=0;right=0;points=[[0,0.5],[1,0.5]];portConstraint=eastwest;" vertex="1" parent="sxXa7FljWsAYec9nlj64-42">
          <mxGeometry y="60" width="180" height="30" as="geometry" />
        </mxCell>
        <mxCell id="sxXa7FljWsAYec9nlj64-47" value="" style="shape=partialRectangle;connectable=0;fillColor=none;top=0;left=0;bottom=0;right=0;editable=1;overflow=hidden;" vertex="1" parent="sxXa7FljWsAYec9nlj64-46">
          <mxGeometry width="30" height="30" as="geometry" />
        </mxCell>
        <mxCell id="sxXa7FljWsAYec9nlj64-48" value="street_address" style="shape=partialRectangle;connectable=0;fillColor=none;top=0;left=0;bottom=0;right=0;align=left;spacingLeft=6;overflow=hidden;" vertex="1" parent="sxXa7FljWsAYec9nlj64-46">
          <mxGeometry x="30" width="150" height="30" as="geometry" />
        </mxCell>
        <mxCell id="sxXa7FljWsAYec9nlj64-49" value="" style="shape=partialRectangle;collapsible=0;dropTarget=0;pointerEvents=0;fillColor=none;top=0;left=0;bottom=0;right=0;points=[[0,0.5],[1,0.5]];portConstraint=eastwest;" vertex="1" parent="sxXa7FljWsAYec9nlj64-42">
          <mxGeometry y="90" width="180" height="30" as="geometry" />
        </mxCell>
        <mxCell id="sxXa7FljWsAYec9nlj64-50" value="" style="shape=partialRectangle;connectable=0;fillColor=none;top=0;left=0;bottom=0;right=0;editable=1;overflow=hidden;" vertex="1" parent="sxXa7FljWsAYec9nlj64-49">
          <mxGeometry width="30" height="30" as="geometry" />
        </mxCell>
        <mxCell id="sxXa7FljWsAYec9nlj64-51" value="postal_code" style="shape=partialRectangle;connectable=0;fillColor=none;top=0;left=0;bottom=0;right=0;align=left;spacingLeft=6;overflow=hidden;" vertex="1" parent="sxXa7FljWsAYec9nlj64-49">
          <mxGeometry x="30" width="150" height="30" as="geometry" />
        </mxCell>
        <mxCell id="sxXa7FljWsAYec9nlj64-52" value="" style="shape=partialRectangle;collapsible=0;dropTarget=0;pointerEvents=0;fillColor=none;top=0;left=0;bottom=0;right=0;points=[[0,0.5],[1,0.5]];portConstraint=eastwest;" vertex="1" parent="sxXa7FljWsAYec9nlj64-42">
          <mxGeometry y="120" width="180" height="30" as="geometry" />
        </mxCell>
        <mxCell id="sxXa7FljWsAYec9nlj64-53" value="" style="shape=partialRectangle;connectable=0;fillColor=none;top=0;left=0;bottom=0;right=0;editable=1;overflow=hidden;" vertex="1" parent="sxXa7FljWsAYec9nlj64-52">
          <mxGeometry width="30" height="30" as="geometry" />
        </mxCell>
        <mxCell id="sxXa7FljWsAYec9nlj64-54" value="city" style="shape=partialRectangle;connectable=0;fillColor=none;top=0;left=0;bottom=0;right=0;align=left;spacingLeft=6;overflow=hidden;" vertex="1" parent="sxXa7FljWsAYec9nlj64-52">
          <mxGeometry x="30" width="150" height="30" as="geometry" />
        </mxCell>
        <mxCell id="sxXa7FljWsAYec9nlj64-64" value="" style="shape=partialRectangle;collapsible=0;dropTarget=0;pointerEvents=0;fillColor=none;top=0;left=0;bottom=0;right=0;points=[[0,0.5],[1,0.5]];portConstraint=eastwest;" vertex="1" parent="sxXa7FljWsAYec9nlj64-42">
          <mxGeometry y="150" width="180" height="30" as="geometry" />
        </mxCell>
        <mxCell id="sxXa7FljWsAYec9nlj64-65" value="" style="shape=partialRectangle;connectable=0;fillColor=none;top=0;left=0;bottom=0;right=0;editable=1;overflow=hidden;" vertex="1" parent="sxXa7FljWsAYec9nlj64-64">
          <mxGeometry width="30" height="30" as="geometry" />
        </mxCell>
        <mxCell id="sxXa7FljWsAYec9nlj64-66" value="state_province" style="shape=partialRectangle;connectable=0;fillColor=none;top=0;left=0;bottom=0;right=0;align=left;spacingLeft=6;overflow=hidden;" vertex="1" parent="sxXa7FljWsAYec9nlj64-64">
          <mxGeometry x="30" width="150" height="30" as="geometry" />
        </mxCell>
        <mxCell id="sxXa7FljWsAYec9nlj64-67" value="" style="shape=partialRectangle;collapsible=0;dropTarget=0;pointerEvents=0;fillColor=none;top=0;left=0;bottom=0;right=0;points=[[0,0.5],[1,0.5]];portConstraint=eastwest;" vertex="1" parent="sxXa7FljWsAYec9nlj64-42">
          <mxGeometry y="180" width="180" height="30" as="geometry" />
        </mxCell>
        <mxCell id="sxXa7FljWsAYec9nlj64-68" value="FK" style="shape=partialRectangle;connectable=0;fillColor=none;top=0;left=0;bottom=0;right=0;editable=1;overflow=hidden;" vertex="1" parent="sxXa7FljWsAYec9nlj64-67">
          <mxGeometry width="30" height="30" as="geometry" />
        </mxCell>
        <mxCell id="sxXa7FljWsAYec9nlj64-69" value="country_id" style="shape=partialRectangle;connectable=0;fillColor=none;top=0;left=0;bottom=0;right=0;align=left;spacingLeft=6;overflow=hidden;" vertex="1" parent="sxXa7FljWsAYec9nlj64-67">
          <mxGeometry x="30" width="150" height="30" as="geometry" />
        </mxCell>
        <mxCell id="sxXa7FljWsAYec9nlj64-58" style="edgeStyle=orthogonalEdgeStyle;rounded=0;orthogonalLoop=1;jettySize=auto;html=1;exitX=1;exitY=0.5;exitDx=0;exitDy=0;entryX=1;entryY=0.5;entryDx=0;entryDy=0;endArrow=ERmany;endFill=0;" edge="1" parent="1" source="sxXa7FljWsAYec9nlj64-18" target="sxXa7FljWsAYec9nlj64-31">
          <mxGeometry relative="1" as="geometry" />
        </mxCell>
        <mxCell id="sxXa7FljWsAYec9nlj64-70" style="edgeStyle=orthogonalEdgeStyle;rounded=0;orthogonalLoop=1;jettySize=auto;html=1;exitX=1;exitY=0.5;exitDx=0;exitDy=0;entryX=1;entryY=0.5;entryDx=0;entryDy=0;endArrow=ERmany;endFill=0;" edge="1" parent="1" source="sxXa7FljWsAYec9nlj64-25" target="sxXa7FljWsAYec9nlj64-67">
          <mxGeometry relative="1" as="geometry" />
        </mxCell>
        <mxCell id="sxXa7FljWsAYec9nlj64-155" style="edgeStyle=orthogonalEdgeStyle;rounded=0;orthogonalLoop=1;jettySize=auto;html=1;exitX=0.5;exitY=1;exitDx=0;exitDy=0;entryX=0.5;entryY=0;entryDx=0;entryDy=0;endArrow=ERmany;endFill=0;" edge="1" parent="1" source="sxXa7FljWsAYec9nlj64-71" target="sxXa7FljWsAYec9nlj64-101">
          <mxGeometry relative="1" as="geometry" />
        </mxCell>
        <mxCell id="sxXa7FljWsAYec9nlj64-71" value="sebastien.departments" style="shape=table;startSize=30;container=1;collapsible=1;childLayout=tableLayout;fixedRows=1;rowLines=0;fontStyle=1;align=center;resizeLast=1;" vertex="1" parent="1">
          <mxGeometry x="-520" y="-1060" width="180" height="160" as="geometry" />
        </mxCell>
        <mxCell id="sxXa7FljWsAYec9nlj64-72" value="" style="shape=partialRectangle;collapsible=0;dropTarget=0;pointerEvents=0;fillColor=none;top=0;left=0;bottom=1;right=0;points=[[0,0.5],[1,0.5]];portConstraint=eastwest;strokeColor=none;" vertex="1" parent="sxXa7FljWsAYec9nlj64-71">
          <mxGeometry y="30" width="180" height="30" as="geometry" />
        </mxCell>
        <mxCell id="sxXa7FljWsAYec9nlj64-73" value="PK" style="shape=partialRectangle;connectable=0;fillColor=none;top=0;left=0;bottom=0;right=0;fontStyle=1;overflow=hidden;" vertex="1" parent="sxXa7FljWsAYec9nlj64-72">
          <mxGeometry width="30" height="30" as="geometry" />
        </mxCell>
        <mxCell id="sxXa7FljWsAYec9nlj64-74" value="department_id" style="shape=partialRectangle;connectable=0;fillColor=none;top=0;left=0;bottom=0;right=0;align=left;spacingLeft=6;fontStyle=5;overflow=hidden;" vertex="1" parent="sxXa7FljWsAYec9nlj64-72">
          <mxGeometry x="30" width="150" height="30" as="geometry" />
        </mxCell>
        <mxCell id="sxXa7FljWsAYec9nlj64-75" value="" style="shape=partialRectangle;collapsible=0;dropTarget=0;pointerEvents=0;fillColor=none;top=0;left=0;bottom=0;right=0;points=[[0,0.5],[1,0.5]];portConstraint=eastwest;" vertex="1" parent="sxXa7FljWsAYec9nlj64-71">
          <mxGeometry y="60" width="180" height="30" as="geometry" />
        </mxCell>
        <mxCell id="sxXa7FljWsAYec9nlj64-76" value="" style="shape=partialRectangle;connectable=0;fillColor=none;top=0;left=0;bottom=0;right=0;editable=1;overflow=hidden;" vertex="1" parent="sxXa7FljWsAYec9nlj64-75">
          <mxGeometry width="30" height="30" as="geometry" />
        </mxCell>
        <mxCell id="sxXa7FljWsAYec9nlj64-77" value="manager_id" style="shape=partialRectangle;connectable=0;fillColor=none;top=0;left=0;bottom=0;right=0;align=left;spacingLeft=6;overflow=hidden;fontStyle=0" vertex="1" parent="sxXa7FljWsAYec9nlj64-75">
          <mxGeometry x="30" width="150" height="30" as="geometry" />
        </mxCell>
        <mxCell id="sxXa7FljWsAYec9nlj64-78" value="" style="shape=partialRectangle;collapsible=0;dropTarget=0;pointerEvents=0;fillColor=none;top=0;left=0;bottom=0;right=0;points=[[0,0.5],[1,0.5]];portConstraint=eastwest;" vertex="1" parent="sxXa7FljWsAYec9nlj64-71">
          <mxGeometry y="90" width="180" height="30" as="geometry" />
        </mxCell>
        <mxCell id="sxXa7FljWsAYec9nlj64-79" value="" style="shape=partialRectangle;connectable=0;fillColor=none;top=0;left=0;bottom=0;right=0;editable=1;overflow=hidden;" vertex="1" parent="sxXa7FljWsAYec9nlj64-78">
          <mxGeometry width="30" height="30" as="geometry" />
        </mxCell>
        <mxCell id="sxXa7FljWsAYec9nlj64-80" value="department_name" style="shape=partialRectangle;connectable=0;fillColor=none;top=0;left=0;bottom=0;right=0;align=left;spacingLeft=6;overflow=hidden;" vertex="1" parent="sxXa7FljWsAYec9nlj64-78">
          <mxGeometry x="30" width="150" height="30" as="geometry" />
        </mxCell>
        <mxCell id="sxXa7FljWsAYec9nlj64-81" value="" style="shape=partialRectangle;collapsible=0;dropTarget=0;pointerEvents=0;fillColor=none;top=0;left=0;bottom=0;right=0;points=[[0,0.5],[1,0.5]];portConstraint=eastwest;" vertex="1" parent="sxXa7FljWsAYec9nlj64-71">
          <mxGeometry y="120" width="180" height="30" as="geometry" />
        </mxCell>
        <mxCell id="sxXa7FljWsAYec9nlj64-82" value="FK" style="shape=partialRectangle;connectable=0;fillColor=none;top=0;left=0;bottom=0;right=0;editable=1;overflow=hidden;" vertex="1" parent="sxXa7FljWsAYec9nlj64-81">
          <mxGeometry width="30" height="30" as="geometry" />
        </mxCell>
        <mxCell id="sxXa7FljWsAYec9nlj64-83" value="location_id" style="shape=partialRectangle;connectable=0;fillColor=none;top=0;left=0;bottom=0;right=0;align=left;spacingLeft=6;overflow=hidden;" vertex="1" parent="sxXa7FljWsAYec9nlj64-81">
          <mxGeometry x="30" width="150" height="30" as="geometry" />
        </mxCell>
        <mxCell id="sxXa7FljWsAYec9nlj64-87" style="edgeStyle=orthogonalEdgeStyle;rounded=0;orthogonalLoop=1;jettySize=auto;html=1;exitX=0;exitY=0.5;exitDx=0;exitDy=0;entryX=1;entryY=0.5;entryDx=0;entryDy=0;endArrow=ERmany;endFill=0;" edge="1" parent="1" source="sxXa7FljWsAYec9nlj64-46" target="sxXa7FljWsAYec9nlj64-75">
          <mxGeometry relative="1" as="geometry" />
        </mxCell>
        <mxCell id="sxXa7FljWsAYec9nlj64-101" value="sebastien.employees" style="shape=table;startSize=30;container=1;collapsible=1;childLayout=tableLayout;fixedRows=1;rowLines=0;fontStyle=1;align=center;resizeLast=1;" vertex="1" parent="1">
          <mxGeometry x="-520" y="-840" width="180" height="370" as="geometry" />
        </mxCell>
        <mxCell id="sxXa7FljWsAYec9nlj64-102" value="" style="shape=partialRectangle;collapsible=0;dropTarget=0;pointerEvents=0;fillColor=none;top=0;left=0;bottom=1;right=0;points=[[0,0.5],[1,0.5]];portConstraint=eastwest;strokeColor=none;" vertex="1" parent="sxXa7FljWsAYec9nlj64-101">
          <mxGeometry y="30" width="180" height="30" as="geometry" />
        </mxCell>
        <mxCell id="sxXa7FljWsAYec9nlj64-103" value="PK" style="shape=partialRectangle;connectable=0;fillColor=none;top=0;left=0;bottom=0;right=0;fontStyle=1;overflow=hidden;" vertex="1" parent="sxXa7FljWsAYec9nlj64-102">
          <mxGeometry width="30" height="30" as="geometry" />
        </mxCell>
        <mxCell id="sxXa7FljWsAYec9nlj64-104" value="employee_id" style="shape=partialRectangle;connectable=0;fillColor=none;top=0;left=0;bottom=0;right=0;align=left;spacingLeft=6;fontStyle=5;overflow=hidden;" vertex="1" parent="sxXa7FljWsAYec9nlj64-102">
          <mxGeometry x="30" width="150" height="30" as="geometry" />
        </mxCell>
        <mxCell id="sxXa7FljWsAYec9nlj64-105" value="" style="shape=partialRectangle;collapsible=0;dropTarget=0;pointerEvents=0;fillColor=none;top=0;left=0;bottom=0;right=0;points=[[0,0.5],[1,0.5]];portConstraint=eastwest;" vertex="1" parent="sxXa7FljWsAYec9nlj64-101">
          <mxGeometry y="60" width="180" height="30" as="geometry" />
        </mxCell>
        <mxCell id="sxXa7FljWsAYec9nlj64-106" value="" style="shape=partialRectangle;connectable=0;fillColor=none;top=0;left=0;bottom=0;right=0;editable=1;overflow=hidden;" vertex="1" parent="sxXa7FljWsAYec9nlj64-105">
          <mxGeometry width="30" height="30" as="geometry" />
        </mxCell>
        <mxCell id="sxXa7FljWsAYec9nlj64-107" value="first_name" style="shape=partialRectangle;connectable=0;fillColor=none;top=0;left=0;bottom=0;right=0;align=left;spacingLeft=6;overflow=hidden;" vertex="1" parent="sxXa7FljWsAYec9nlj64-105">
          <mxGeometry x="30" width="150" height="30" as="geometry" />
        </mxCell>
        <mxCell id="sxXa7FljWsAYec9nlj64-154" style="edgeStyle=orthogonalEdgeStyle;rounded=0;orthogonalLoop=1;jettySize=auto;html=1;exitX=1;exitY=0.5;exitDx=0;exitDy=0;entryX=1;entryY=-0.1;entryDx=0;entryDy=0;entryPerimeter=0;endArrow=ERmany;endFill=0;" edge="1" parent="sxXa7FljWsAYec9nlj64-101" source="sxXa7FljWsAYec9nlj64-108" target="sxXa7FljWsAYec9nlj64-105">
          <mxGeometry relative="1" as="geometry" />
        </mxCell>
        <mxCell id="sxXa7FljWsAYec9nlj64-108" value="" style="shape=partialRectangle;collapsible=0;dropTarget=0;pointerEvents=0;fillColor=none;top=0;left=0;bottom=0;right=0;points=[[0,0.5],[1,0.5]];portConstraint=eastwest;" vertex="1" parent="sxXa7FljWsAYec9nlj64-101">
          <mxGeometry y="90" width="180" height="30" as="geometry" />
        </mxCell>
        <mxCell id="sxXa7FljWsAYec9nlj64-109" value="" style="shape=partialRectangle;connectable=0;fillColor=none;top=0;left=0;bottom=0;right=0;editable=1;overflow=hidden;" vertex="1" parent="sxXa7FljWsAYec9nlj64-108">
          <mxGeometry width="30" height="30" as="geometry" />
        </mxCell>
        <mxCell id="sxXa7FljWsAYec9nlj64-110" value="last_name" style="shape=partialRectangle;connectable=0;fillColor=none;top=0;left=0;bottom=0;right=0;align=left;spacingLeft=6;overflow=hidden;" vertex="1" parent="sxXa7FljWsAYec9nlj64-108">
          <mxGeometry x="30" width="150" height="30" as="geometry" />
        </mxCell>
        <mxCell id="sxXa7FljWsAYec9nlj64-111" value="" style="shape=partialRectangle;collapsible=0;dropTarget=0;pointerEvents=0;fillColor=none;top=0;left=0;bottom=0;right=0;points=[[0,0.5],[1,0.5]];portConstraint=eastwest;" vertex="1" parent="sxXa7FljWsAYec9nlj64-101">
          <mxGeometry y="120" width="180" height="30" as="geometry" />
        </mxCell>
        <mxCell id="sxXa7FljWsAYec9nlj64-112" value="" style="shape=partialRectangle;connectable=0;fillColor=none;top=0;left=0;bottom=0;right=0;editable=1;overflow=hidden;" vertex="1" parent="sxXa7FljWsAYec9nlj64-111">
          <mxGeometry width="30" height="30" as="geometry" />
        </mxCell>
        <mxCell id="sxXa7FljWsAYec9nlj64-113" value="email" style="shape=partialRectangle;connectable=0;fillColor=none;top=0;left=0;bottom=0;right=0;align=left;spacingLeft=6;overflow=hidden;" vertex="1" parent="sxXa7FljWsAYec9nlj64-111">
          <mxGeometry x="30" width="150" height="30" as="geometry" />
        </mxCell>
        <mxCell id="sxXa7FljWsAYec9nlj64-114" value="" style="shape=partialRectangle;collapsible=0;dropTarget=0;pointerEvents=0;fillColor=none;top=0;left=0;bottom=0;right=0;points=[[0,0.5],[1,0.5]];portConstraint=eastwest;" vertex="1" parent="sxXa7FljWsAYec9nlj64-101">
          <mxGeometry y="150" width="180" height="30" as="geometry" />
        </mxCell>
        <mxCell id="sxXa7FljWsAYec9nlj64-115" value="" style="shape=partialRectangle;connectable=0;fillColor=none;top=0;left=0;bottom=0;right=0;editable=1;overflow=hidden;" vertex="1" parent="sxXa7FljWsAYec9nlj64-114">
          <mxGeometry width="30" height="30" as="geometry" />
        </mxCell>
        <mxCell id="sxXa7FljWsAYec9nlj64-116" value="phone_number" style="shape=partialRectangle;connectable=0;fillColor=none;top=0;left=0;bottom=0;right=0;align=left;spacingLeft=6;overflow=hidden;" vertex="1" parent="sxXa7FljWsAYec9nlj64-114">
          <mxGeometry x="30" width="150" height="30" as="geometry" />
        </mxCell>
        <mxCell id="sxXa7FljWsAYec9nlj64-133" value="" style="shape=partialRectangle;collapsible=0;dropTarget=0;pointerEvents=0;fillColor=none;top=0;left=0;bottom=0;right=0;points=[[0,0.5],[1,0.5]];portConstraint=eastwest;" vertex="1" parent="sxXa7FljWsAYec9nlj64-101">
          <mxGeometry y="180" width="180" height="30" as="geometry" />
        </mxCell>
        <mxCell id="sxXa7FljWsAYec9nlj64-134" value="" style="shape=partialRectangle;connectable=0;fillColor=none;top=0;left=0;bottom=0;right=0;editable=1;overflow=hidden;" vertex="1" parent="sxXa7FljWsAYec9nlj64-133">
          <mxGeometry width="30" height="30" as="geometry" />
        </mxCell>
        <mxCell id="sxXa7FljWsAYec9nlj64-135" value="hire_date" style="shape=partialRectangle;connectable=0;fillColor=none;top=0;left=0;bottom=0;right=0;align=left;spacingLeft=6;overflow=hidden;" vertex="1" parent="sxXa7FljWsAYec9nlj64-133">
          <mxGeometry x="30" width="150" height="30" as="geometry" />
        </mxCell>
        <mxCell id="sxXa7FljWsAYec9nlj64-136" value="" style="shape=partialRectangle;collapsible=0;dropTarget=0;pointerEvents=0;fillColor=none;top=0;left=0;bottom=0;right=0;points=[[0,0.5],[1,0.5]];portConstraint=eastwest;" vertex="1" parent="sxXa7FljWsAYec9nlj64-101">
          <mxGeometry y="210" width="180" height="30" as="geometry" />
        </mxCell>
        <mxCell id="sxXa7FljWsAYec9nlj64-137" value="FK" style="shape=partialRectangle;connectable=0;fillColor=none;top=0;left=0;bottom=0;right=0;editable=1;overflow=hidden;" vertex="1" parent="sxXa7FljWsAYec9nlj64-136">
          <mxGeometry width="30" height="30" as="geometry" />
        </mxCell>
        <mxCell id="sxXa7FljWsAYec9nlj64-138" value="job_id" style="shape=partialRectangle;connectable=0;fillColor=none;top=0;left=0;bottom=0;right=0;align=left;spacingLeft=6;overflow=hidden;" vertex="1" parent="sxXa7FljWsAYec9nlj64-136">
          <mxGeometry x="30" width="150" height="30" as="geometry" />
        </mxCell>
        <mxCell id="sxXa7FljWsAYec9nlj64-139" value="" style="shape=partialRectangle;collapsible=0;dropTarget=0;pointerEvents=0;fillColor=none;top=0;left=0;bottom=0;right=0;points=[[0,0.5],[1,0.5]];portConstraint=eastwest;" vertex="1" parent="sxXa7FljWsAYec9nlj64-101">
          <mxGeometry y="240" width="180" height="30" as="geometry" />
        </mxCell>
        <mxCell id="sxXa7FljWsAYec9nlj64-140" value="" style="shape=partialRectangle;connectable=0;fillColor=none;top=0;left=0;bottom=0;right=0;editable=1;overflow=hidden;" vertex="1" parent="sxXa7FljWsAYec9nlj64-139">
          <mxGeometry width="30" height="30" as="geometry" />
        </mxCell>
        <mxCell id="sxXa7FljWsAYec9nlj64-141" value="salary" style="shape=partialRectangle;connectable=0;fillColor=none;top=0;left=0;bottom=0;right=0;align=left;spacingLeft=6;overflow=hidden;" vertex="1" parent="sxXa7FljWsAYec9nlj64-139">
          <mxGeometry x="30" width="150" height="30" as="geometry" />
        </mxCell>
        <mxCell id="sxXa7FljWsAYec9nlj64-142" value="" style="shape=partialRectangle;collapsible=0;dropTarget=0;pointerEvents=0;fillColor=none;top=0;left=0;bottom=0;right=0;points=[[0,0.5],[1,0.5]];portConstraint=eastwest;" vertex="1" parent="sxXa7FljWsAYec9nlj64-101">
          <mxGeometry y="270" width="180" height="30" as="geometry" />
        </mxCell>
        <mxCell id="sxXa7FljWsAYec9nlj64-143" value="" style="shape=partialRectangle;connectable=0;fillColor=none;top=0;left=0;bottom=0;right=0;editable=1;overflow=hidden;" vertex="1" parent="sxXa7FljWsAYec9nlj64-142">
          <mxGeometry width="30" height="30" as="geometry" />
        </mxCell>
        <mxCell id="sxXa7FljWsAYec9nlj64-144" value="commission_pct" style="shape=partialRectangle;connectable=0;fillColor=none;top=0;left=0;bottom=0;right=0;align=left;spacingLeft=6;overflow=hidden;" vertex="1" parent="sxXa7FljWsAYec9nlj64-142">
          <mxGeometry x="30" width="150" height="30" as="geometry" />
        </mxCell>
        <mxCell id="sxXa7FljWsAYec9nlj64-145" value="" style="shape=partialRectangle;collapsible=0;dropTarget=0;pointerEvents=0;fillColor=none;top=0;left=0;bottom=0;right=0;points=[[0,0.5],[1,0.5]];portConstraint=eastwest;" vertex="1" parent="sxXa7FljWsAYec9nlj64-101">
          <mxGeometry y="300" width="180" height="30" as="geometry" />
        </mxCell>
        <mxCell id="sxXa7FljWsAYec9nlj64-146" value="FK" style="shape=partialRectangle;connectable=0;fillColor=none;top=0;left=0;bottom=0;right=0;editable=1;overflow=hidden;" vertex="1" parent="sxXa7FljWsAYec9nlj64-145">
          <mxGeometry width="30" height="30" as="geometry" />
        </mxCell>
        <mxCell id="sxXa7FljWsAYec9nlj64-147" value="manager_id" style="shape=partialRectangle;connectable=0;fillColor=none;top=0;left=0;bottom=0;right=0;align=left;spacingLeft=6;overflow=hidden;" vertex="1" parent="sxXa7FljWsAYec9nlj64-145">
          <mxGeometry x="30" width="150" height="30" as="geometry" />
        </mxCell>
        <mxCell id="sxXa7FljWsAYec9nlj64-148" value="" style="shape=partialRectangle;collapsible=0;dropTarget=0;pointerEvents=0;fillColor=none;top=0;left=0;bottom=0;right=0;points=[[0,0.5],[1,0.5]];portConstraint=eastwest;" vertex="1" parent="sxXa7FljWsAYec9nlj64-101">
          <mxGeometry y="330" width="180" height="30" as="geometry" />
        </mxCell>
        <mxCell id="sxXa7FljWsAYec9nlj64-149" value="" style="shape=partialRectangle;connectable=0;fillColor=none;top=0;left=0;bottom=0;right=0;editable=1;overflow=hidden;" vertex="1" parent="sxXa7FljWsAYec9nlj64-148">
          <mxGeometry width="30" height="30" as="geometry" />
        </mxCell>
        <mxCell id="sxXa7FljWsAYec9nlj64-150" value="department_id" style="shape=partialRectangle;connectable=0;fillColor=none;top=0;left=0;bottom=0;right=0;align=left;spacingLeft=6;overflow=hidden;" vertex="1" parent="sxXa7FljWsAYec9nlj64-148">
          <mxGeometry x="30" width="150" height="30" as="geometry" />
        </mxCell>
        <mxCell id="sxXa7FljWsAYec9nlj64-157" value="sebastien.jobs" style="shape=table;startSize=30;container=1;collapsible=1;childLayout=tableLayout;fixedRows=1;rowLines=0;fontStyle=1;align=center;resizeLast=1;" vertex="1" parent="1">
          <mxGeometry x="-785" y="-730" width="180" height="160" as="geometry" />
        </mxCell>
        <mxCell id="sxXa7FljWsAYec9nlj64-158" value="" style="shape=partialRectangle;collapsible=0;dropTarget=0;pointerEvents=0;fillColor=none;top=0;left=0;bottom=1;right=0;points=[[0,0.5],[1,0.5]];portConstraint=eastwest;" vertex="1" parent="sxXa7FljWsAYec9nlj64-157">
          <mxGeometry y="30" width="180" height="30" as="geometry" />
        </mxCell>
        <mxCell id="sxXa7FljWsAYec9nlj64-159" value="PK" style="shape=partialRectangle;connectable=0;fillColor=none;top=0;left=0;bottom=0;right=0;fontStyle=1;overflow=hidden;" vertex="1" parent="sxXa7FljWsAYec9nlj64-158">
          <mxGeometry width="30" height="30" as="geometry" />
        </mxCell>
        <mxCell id="sxXa7FljWsAYec9nlj64-160" value="job_id" style="shape=partialRectangle;connectable=0;fillColor=none;top=0;left=0;bottom=0;right=0;align=left;spacingLeft=6;fontStyle=5;overflow=hidden;" vertex="1" parent="sxXa7FljWsAYec9nlj64-158">
          <mxGeometry x="30" width="150" height="30" as="geometry" />
        </mxCell>
        <mxCell id="sxXa7FljWsAYec9nlj64-161" value="" style="shape=partialRectangle;collapsible=0;dropTarget=0;pointerEvents=0;fillColor=none;top=0;left=0;bottom=0;right=0;points=[[0,0.5],[1,0.5]];portConstraint=eastwest;" vertex="1" parent="sxXa7FljWsAYec9nlj64-157">
          <mxGeometry y="60" width="180" height="30" as="geometry" />
        </mxCell>
        <mxCell id="sxXa7FljWsAYec9nlj64-162" value="" style="shape=partialRectangle;connectable=0;fillColor=none;top=0;left=0;bottom=0;right=0;editable=1;overflow=hidden;" vertex="1" parent="sxXa7FljWsAYec9nlj64-161">
          <mxGeometry width="30" height="30" as="geometry" />
        </mxCell>
        <mxCell id="sxXa7FljWsAYec9nlj64-163" value="job_title" style="shape=partialRectangle;connectable=0;fillColor=none;top=0;left=0;bottom=0;right=0;align=left;spacingLeft=6;overflow=hidden;" vertex="1" parent="sxXa7FljWsAYec9nlj64-161">
          <mxGeometry x="30" width="150" height="30" as="geometry" />
        </mxCell>
        <mxCell id="sxXa7FljWsAYec9nlj64-164" value="" style="shape=partialRectangle;collapsible=0;dropTarget=0;pointerEvents=0;fillColor=none;top=0;left=0;bottom=0;right=0;points=[[0,0.5],[1,0.5]];portConstraint=eastwest;" vertex="1" parent="sxXa7FljWsAYec9nlj64-157">
          <mxGeometry y="90" width="180" height="30" as="geometry" />
        </mxCell>
        <mxCell id="sxXa7FljWsAYec9nlj64-165" value="" style="shape=partialRectangle;connectable=0;fillColor=none;top=0;left=0;bottom=0;right=0;editable=1;overflow=hidden;" vertex="1" parent="sxXa7FljWsAYec9nlj64-164">
          <mxGeometry width="30" height="30" as="geometry" />
        </mxCell>
        <mxCell id="sxXa7FljWsAYec9nlj64-166" value="min_salary" style="shape=partialRectangle;connectable=0;fillColor=none;top=0;left=0;bottom=0;right=0;align=left;spacingLeft=6;overflow=hidden;" vertex="1" parent="sxXa7FljWsAYec9nlj64-164">
          <mxGeometry x="30" width="150" height="30" as="geometry" />
        </mxCell>
        <mxCell id="sxXa7FljWsAYec9nlj64-167" value="" style="shape=partialRectangle;collapsible=0;dropTarget=0;pointerEvents=0;fillColor=none;top=0;left=0;bottom=0;right=0;points=[[0,0.5],[1,0.5]];portConstraint=eastwest;" vertex="1" parent="sxXa7FljWsAYec9nlj64-157">
          <mxGeometry y="120" width="180" height="30" as="geometry" />
        </mxCell>
        <mxCell id="sxXa7FljWsAYec9nlj64-168" value="" style="shape=partialRectangle;connectable=0;fillColor=none;top=0;left=0;bottom=0;right=0;editable=1;overflow=hidden;" vertex="1" parent="sxXa7FljWsAYec9nlj64-167">
          <mxGeometry width="30" height="30" as="geometry" />
        </mxCell>
        <mxCell id="sxXa7FljWsAYec9nlj64-169" value="max_salary" style="shape=partialRectangle;connectable=0;fillColor=none;top=0;left=0;bottom=0;right=0;align=left;spacingLeft=6;overflow=hidden;" vertex="1" parent="sxXa7FljWsAYec9nlj64-167">
          <mxGeometry x="30" width="150" height="30" as="geometry" />
        </mxCell>
        <mxCell id="sxXa7FljWsAYec9nlj64-170" style="edgeStyle=orthogonalEdgeStyle;rounded=0;orthogonalLoop=1;jettySize=auto;html=1;exitX=1;exitY=0.5;exitDx=0;exitDy=0;entryX=0.006;entryY=0.1;entryDx=0;entryDy=0;entryPerimeter=0;endArrow=ERmany;endFill=0;" edge="1" parent="1" source="sxXa7FljWsAYec9nlj64-164" target="sxXa7FljWsAYec9nlj64-133">
          <mxGeometry relative="1" as="geometry" />
        </mxCell>
        <mxCell id="sxXa7FljWsAYec9nlj64-184" value="sebastien_job_history" style="shape=table;startSize=30;container=1;collapsible=1;childLayout=tableLayout;fixedRows=1;rowLines=0;fontStyle=1;align=center;resizeLast=1;" vertex="1" parent="1">
          <mxGeometry x="-785" y="-975" width="180" height="130" as="geometry" />
        </mxCell>
        <mxCell id="sxXa7FljWsAYec9nlj64-188" value="" style="shape=partialRectangle;collapsible=0;dropTarget=0;pointerEvents=0;fillColor=none;top=0;left=0;bottom=0;right=0;points=[[0,0.5],[1,0.5]];portConstraint=eastwest;" vertex="1" parent="sxXa7FljWsAYec9nlj64-184">
          <mxGeometry y="30" width="180" height="30" as="geometry" />
        </mxCell>
        <mxCell id="sxXa7FljWsAYec9nlj64-189" value="" style="shape=partialRectangle;connectable=0;fillColor=none;top=0;left=0;bottom=0;right=0;editable=1;overflow=hidden;" vertex="1" parent="sxXa7FljWsAYec9nlj64-188">
          <mxGeometry width="30" height="30" as="geometry" />
        </mxCell>
        <mxCell id="sxXa7FljWsAYec9nlj64-190" value="employee_id" style="shape=partialRectangle;connectable=0;fillColor=none;top=0;left=0;bottom=0;right=0;align=left;spacingLeft=6;overflow=hidden;" vertex="1" parent="sxXa7FljWsAYec9nlj64-188">
          <mxGeometry x="30" width="150" height="30" as="geometry" />
        </mxCell>
        <mxCell id="sxXa7FljWsAYec9nlj64-191" value="" style="shape=partialRectangle;collapsible=0;dropTarget=0;pointerEvents=0;fillColor=none;top=0;left=0;bottom=0;right=0;points=[[0,0.5],[1,0.5]];portConstraint=eastwest;" vertex="1" parent="sxXa7FljWsAYec9nlj64-184">
          <mxGeometry y="60" width="180" height="30" as="geometry" />
        </mxCell>
        <mxCell id="sxXa7FljWsAYec9nlj64-192" value="" style="shape=partialRectangle;connectable=0;fillColor=none;top=0;left=0;bottom=0;right=0;editable=1;overflow=hidden;" vertex="1" parent="sxXa7FljWsAYec9nlj64-191">
          <mxGeometry width="30" height="30" as="geometry" />
        </mxCell>
        <mxCell id="sxXa7FljWsAYec9nlj64-193" value="Row 2" style="shape=partialRectangle;connectable=0;fillColor=none;top=0;left=0;bottom=0;right=0;align=left;spacingLeft=6;overflow=hidden;" vertex="1" parent="sxXa7FljWsAYec9nlj64-191">
          <mxGeometry x="30" width="150" height="30" as="geometry" />
        </mxCell>
        <mxCell id="sxXa7FljWsAYec9nlj64-194" value="" style="shape=partialRectangle;collapsible=0;dropTarget=0;pointerEvents=0;fillColor=none;top=0;left=0;bottom=0;right=0;points=[[0,0.5],[1,0.5]];portConstraint=eastwest;" vertex="1" parent="sxXa7FljWsAYec9nlj64-184">
          <mxGeometry y="90" width="180" height="30" as="geometry" />
        </mxCell>
        <mxCell id="sxXa7FljWsAYec9nlj64-195" value="" style="shape=partialRectangle;connectable=0;fillColor=none;top=0;left=0;bottom=0;right=0;editable=1;overflow=hidden;" vertex="1" parent="sxXa7FljWsAYec9nlj64-194">
          <mxGeometry width="30" height="30" as="geometry" />
        </mxCell>
        <mxCell id="sxXa7FljWsAYec9nlj64-196" value="Row 3" style="shape=partialRectangle;connectable=0;fillColor=none;top=0;left=0;bottom=0;right=0;align=left;spacingLeft=6;overflow=hidden;" vertex="1" parent="sxXa7FljWsAYec9nlj64-194">
          <mxGeometry x="30" width="150" height="30" as="geometry" />
        </mxCell>
      </root>
    </mxGraphModel>
  </diagram>
</mxfile>
